<?xml version="1.0" encoding="utf-8"?>
<!-- Generator: Adobe Illustrator 24.2.3, SVG Export Plug-In . SVG Version: 6.00 Build 0)  -->
<svg version="1.1" id="Layer_1" xmlns="http://www.w3.org/2000/svg" xmlns:xlink="http://www.w3.org/1999/xlink" x="0px" y="0px"
	 viewBox="0 0 150 150" style="enable-background:new 0 0 150 150;" xml:space="preserve">
<style type="text/css">
	.st0{fill:#0063B4;}
	.st1{fill:#FFFFFF;}
	.st2{display:none;}
	.st3{display:inline;fill:#3B5998;}
	.st4{display:inline;}
	.st5{display:inline;fill:#FFFFFF;}
	.st6{display:inline;fill:#FF0000;}
</style>
<g>
	<circle class="st0" cx="75.2" cy="75.2" r="74.8"/>
	<g>
		<path class="st1" d="M39.2,43.9c0-4.8,3.9-8.7,8.6-8.7c4.8,0,8.7,3.9,8.7,8.7c0,4.8-3.9,8.7-8.7,8.7
			C43.1,52.7,39.2,48.7,39.2,43.9z M40.4,107.3V59.2h14.9v48.1H40.4z M96.3,107.3V83.9c0-5.6-0.1-12.7-7.8-12.7c-7.8,0-9,6.1-9,12.3
			v23.8H64.7V59.2H79v6.6h0.2c2-3.8,6.9-7.8,14.1-7.8c15.1,0,17.9,10,17.9,22.9v26.4h0H96.3z"/>
	</g>
</g>
<g class="st2">
	<circle class="st3" cx="75.2" cy="75.2" r="74.8"/>
	<g class="st4">
		<path class="st1" d="M82.3,80.3v36H66.2v-36H53.2V65.4h13.1V54.1c0-12.9,7.7-20,19.5-20c5.6,0,11.5,1,11.5,1v12.7h-6.5
			c-6.4,0-8.4,4-8.4,8.1v9.7h14.3l-2.3,14.9H82.3z"/>
	</g>
</g>
<g class="st2">
	<circle class="st5" cx="75.2" cy="75.2" r="74.8"/>
	<g class="st4">
		<path d="M111,90.1c-0.3,5.8-1.6,10.9-5.8,15.1c-4.2,4.2-9.3,5.5-15.1,5.8c-5.9,0.3-23.8,0.3-29.7,0c-5.8-0.3-10.9-1.6-15.1-5.8
			c-4.2-4.2-5.5-9.3-5.8-15.1c-0.3-6-0.3-23.8,0-29.7c0.3-5.8,1.6-10.9,5.8-15.1c4.2-4.2,9.3-5.5,15.1-5.8c5.9-0.3,23.8-0.3,29.7,0
			c5.8,0.3,10.9,1.6,15.1,5.8c4.2,4.2,5.5,9.3,5.8,15.1C111.3,66.3,111.3,84.1,111,90.1z M104.7,75.2c0-5.2,0.4-16.5-1.4-21.2
			c-1.3-3.2-3.7-5.6-6.8-6.8c-4.7-1.9-16-1.5-21.2-1.5c-5.2,0-16.5-0.4-21.2,1.5c-3.2,1.3-5.6,3.7-6.9,6.8c-1.9,4.7-1.4,16-1.4,21.2
			c0,5.2-0.4,16.5,1.4,21.2c1.3,3.2,3.7,5.6,6.9,6.9c4.7,1.9,16,1.4,21.2,1.4c5.2,0,16.5,0.4,21.2-1.4c3.2-1.3,5.6-3.7,6.8-6.9
			C105.2,91.7,104.7,80.4,104.7,75.2z M93.7,75.2c0,10.2-8.2,18.5-18.5,18.5s-18.5-8.2-18.5-18.5c0-10.2,8.2-18.5,18.5-18.5
			S93.7,65,93.7,75.2z M87.2,75.2c0-6.6-5.4-12-12-12c-6.6,0-12,5.4-12,12c0,6.6,5.4,12,12,12C81.8,87.2,87.2,81.8,87.2,75.2z
			 M94.4,60.3c-2.4,0-4.3-1.9-4.3-4.3c0-2.4,1.9-4.3,4.3-4.3s4.3,1.9,4.3,4.3C98.7,58.4,96.8,60.3,94.4,60.3z"/>
	</g>
</g>
<g class="st2">
	<circle class="st6" cx="75.2" cy="75.2" r="74.8"/>
	<g class="st4">
		<path class="st1" d="M119.1,75.3c0,0,0,14.4-1.8,21.3c-1,3.8-4,6.7-7.8,7.7c-6.9,1.9-34.3,1.9-34.3,1.9s-27.5,0-34.3-1.9
			c-3.8-1-6.7-3.9-7.8-7.7c-1.8-6.9-1.8-21.3-1.8-21.3s0-14.4,1.8-21.3c1-3.8,4-6.8,7.8-7.8c6.9-1.8,34.3-1.8,34.3-1.8
			s27.5,0,34.3,1.8c3.8,1,6.7,4,7.8,7.8C119.1,60.9,119.1,75.3,119.1,75.3z M89.2,75.3L66.2,62.2v26.1L89.2,75.3z"/>
	</g>
</g>
</svg>
